<?xml version="1.0" encoding="utf-8"?>
<!-- Generator: Adobe Illustrator 26.0.1, SVG Export Plug-In . SVG Version: 6.00 Build 0)  -->
<svg version="1.1" id="Layer_1" xmlns="http://www.w3.org/2000/svg" xmlns:xlink="http://www.w3.org/1999/xlink" x="0px" y="0px"
	 viewBox="0 0 841.9 973" style="enable-background:new 0 0 841.9 973;" xml:space="preserve">
<style type="text/css">
	.st0{fill:#28285B;}
</style>
<g>
	<g>
		<g>
			<g>
				<path class="st0" d="M328.5,233.4c0,0-12.8,19.2-5.4,53.3l-38.6-51.3c0,0-68-26.8-81.3-110.2
					C203.1,125.2,246.5,202.6,328.5,233.4z"/>
				<path class="st0" d="M388.9,350.8c-0.8-0.6-2-1.4-3.4-2.5c0,0-9.5-7.2-17.3-16.2c-15-17.5-24.1-56.6-25.7-63.8
					c-1.7-7.5-3.8-18.4-5.4-31.9c11.2,3.5,25.5,6.9,42.1,8.3c18.8,1.7,35,0.4,47.6-1.4c-0.5,1.4-1,2.9-1.5,4.3
					c-8.6,3.5-19.8,7.2-33,9.4c-10.8,1.8-20.5,2.2-28.7,2.1c2.8,4.8,6.5,11.5,10,20c5.7,14,8.2,25.4,10.5,36.7
					C385.8,324.9,387.8,336.7,388.9,350.8z"/>
				<ellipse class="st0" cx="323.8" cy="182.1" rx="31.6" ry="32.4"/>
				<ellipse class="st0" cx="543.8" cy="182.1" rx="31.6" ry="32.4"/>
				<ellipse class="st0" cx="431.9" cy="330" rx="34.5" ry="35.4"/>
				<path class="st0" d="M428.4,241.3c8.6,4.6,20.4,9.8,34.9,13.4c15.9,3.9,29.8,4.6,40.1,4.3c-3.4,5.8-7.7,14-11.5,24.3
					c-0.8,2.1-3.7,10.2-7.2,25.5c-2.2,10-4.7,23.5-6.3,40c10.2-9.2,17.7-17.6,22.7-23.9c5.6-7,9.9-13.4,18.3-26
					c5.7-8.6,10.3-15.8,13.5-20.8c-1.9,11.5-3.8,22.9-5.8,34.4c0,0,25-39.9,55.2-76.9c1.2-0.3,3-0.7,5-1.4c3.4-1.1,13-4.6,26.7-17.2
					c5.9-5.4,9.8-10,13.5-14.3c5.4-6.3,12-14.2,17.2-23.4c4.1-7.4,10.1-20.3,12-39.3c-8,13.1-16,22.9-21.9,29.5
					c-19.6,21.8-39.5,34.2-53.2,42.5c-5.9,3.6-14.1,8.6-25.7,13.9c-31.5,14.5-58.1,17.8-64.5,18.5
					C466.1,247.2,444.3,244.6,428.4,241.3z"/>
				<path class="st0" d="M330.6,248.3c-1,4.9-2.1,12-2.1,20.7c0,11.4,1.9,19.9,4.2,29.8c1.5,6.7,3.9,16.9,8.6,28.6
					c0,0,14.6,36.1,45.8,64c0,0,0.5,0.4,12.4,11l0,0c1.3,10.3,2.1,25.5-0.6,43.4c-0.5,3.4-1.7,10.3-5.4,23.5
					c-2.7,9.6-8.6,28.8-22.7,60.2c-5.8,13-13.8,29.7-24.1,48.8c2.4,0.8,6,1.7,10.3,1.3c11.8-1.1,24.8-11.7,52.5-75.7
					c5.7-13,12.9-30.5,20.6-51.6c8.9,19.8,39.3,84.6,58.2,79.8c1.9-0.5,3.8-1.7,5.7-4c-0.3,0.1-0.9,0.2-1.5,0.2
					c-4.3-0.2-12.3-4.9-22.4-46.3c-4.9-20.3-10.6-50.3-12.4-89.8c5.8-2,14.1-5.5,22.8-12c10-7.5,15.7-15.5,19.2-20.5
					c11.5-16.3,16.6-33.1,19-45.4c-9.1,15.1-25.2,36.7-50.7,51.2c-16.2,9.2-27,10.3-31.3,10.6c-14.9,1-26.1-3.8-34.5-7.5
					c-5-2.2-24.1-11.1-40.4-32.2c-11.8-15.3-16.5-29.7-21.9-46.5C334.5,273.2,331.9,258.8,330.6,248.3z"/>
				<path class="st0" d="M371.1,386.1l21.3,21.2c0,0,5.1,27.8-8.5,68.6C383.9,475.9,373.4,393.2,371.1,386.1z"/>
				<path class="st0" d="M353.3,365.4c0,0,7.2,2.5,12,39.9c0,0-36.9,56.6-141.5,5.9c9.3,2.8,23.9,6.2,42,6.7
					c21.8,0.6,45.9,1.3,65.1-15C336.3,398.5,347.6,387.5,353.3,365.4z"/>
				<path class="st0" d="M474.9,393.4c0,0,15.3-8.9,24-19.6c0,0-9.7,44.5-16.9,112.2C482,486.1,467.9,473.2,474.9,393.4z"/>
				<path class="st0" d="M512.8,363c0,0-11.2,21.2-11.3,41.5c0,0,33.5,58,142.4,6.6c-7.1,1.7-17.1,3.8-29.2,5.4
					c-2.5,0.3-12.3,1.6-19.7,1.9c-12.8,0.5-40.5,1.6-60.8-16.1C529.6,398.2,517.5,386.5,512.8,363z"/>
			</g>
			<path class="st0" d="M352.4,588c16.3,29.2,15.2,57,15.2,57l-2.4,99.2l-0.3,14.9l0,0l-1.2,51.6c-7.3-1.1-14.7-2.5-21.8-4.1
				C171.4,769.2,43.5,613.8,43.5,427.7c0-125.9,58.5-237.6,149-308.4c1.3,7.4,6.2,34.2,15.1,51.8C137.2,232.9,92.5,324.7,92.5,427.2
				c0,133.9,76.1,249.5,186.4,303.7c-1.3-71-16.9-75.1-29-90.1c-12.3-15.2-57.1-44.5-71.4-62.7c-14.3-18.2-18.7-24.8-30.5-69.8
				s-5.9-139.5-4.4-146.1c1.5-6.6,2.5-15.2,14.3-7.1s20.2,95,20.2,95c8.4,38.4,29.1,70.8,29.1,70.8c26.5,41.1,55.1,34.5,55.1,34.5
				c3-12.6-25.6-49.6-25.6-49.6c-36-43-6.9-61.6-6.9-61.6c13.3,5.6,20.7,14.2,34,37.4c13.3,23.3,64.5,76.4,64.5,76.4
				c5,4.4,9.4,9,13.1,13.7l-5.6,9.9C345.3,587.6,350.1,588.2,352.4,588z"/>
			<path class="st0" d="M627.8,166.5c-56.5-47.4-128.7-75.9-207.4-75.9c-70,0-134.8,22.5-188.1,60.8c-3.3-3.9-18.8-22.6-28-41
				c61.3-44.1,136-70,216.5-70c89.1,0,171.1,31.7,235.7,84.8C642.7,150.7,631.3,163,627.8,166.5z"/>
			<path class="st0" d="M798.3,427.7c0,194.1-139,354.8-320.4,383l-1.5-71.4l-1.9-90.7c0,0-2.6-47.8,29.6-80.4
				c32.1-32.6,65.4-73.6,75.7-89.5c10.3-15.9,19-29.3,32.4-35.5c0,0,26.6,16.8,0,53.2c-26.6,36.4-34.5,52.6-32.5,58.5
				c0,0,20.3,7.2,45.3-21.1c0,0,19-17.9,36.2-73.7l3.9-17c0,0,4.2-39.8,7.5-52.6c3.3-12.8,5.4-43.5,21.7-37.5
				c0,0,10.7-8.2,5.9,112.7c0,0-1.8,73.9-36.6,113.8c0,0-83.5,65.6-87.9,81.9c0,0-12.7,17.1-13.3,69.3
				c110-54.3,185.9-169.8,185.9-303.5c0-93.7-37.3-178.3-97.3-239.4c10.8-17.1,15.5-48.2,16.3-53.5
				C747.5,205.4,798.3,310.5,798.3,427.7z"/>
		</g>
		<path class="st0" d="M420.9,864.5L420.9,864.5h0.1C420.9,864.5,420.9,864.5,420.9,864.5z"/>
		<g>
			<path class="st0" d="M427.3,809.2h-10.7l-3.4-8.8h-16.8l-3.4,8.8h-10.7l16.9-38.5h11.5L427.3,809.2z M410.8,794l-5.3-13.4
				c-0.3-0.8-0.6-2-0.7-3.4h-0.2c-0.1,1.1-0.4,2.2-0.8,3.3l-5.3,13.4L410.8,794L410.8,794z"/>
			<path class="st0" d="M459.4,777.4H443v9.9h15.1v6.7H443v15.2h-9.8v-38.5h26.3L459.4,777.4L459.4,777.4z"/>
		</g>
		<g>
			<path class="st0" d="M348.2,914.7c-1.4,3.2-3.2,6.2-5.4,8.8c-2.2,2.6-4.9,4.8-7.9,6.5c-3,1.7-6.2,2.5-9.6,2.5H222.1v-28.5h73.5
				c1.2,0,2.1-0.7,2.8-2.1c0.7-1.4,1-2.6,1-3.7v-6.4h-53.7c-2.3,0-4.9-0.7-7.6-2.2s-5.3-3.4-7.7-5.7c-2.4-2.3-4.3-4.9-5.9-7.8
				c-1.5-2.9-2.4-5.8-2.4-8.8v-16.9c0-3.4,0.7-6.6,2-9.8c1.3-3.1,3.1-6,5.4-8.5c2.3-2.5,4.9-4.6,7.8-6c3-1.5,6.1-2.2,9.6-2.2H350
				v28.5h-73.6c-1.1,0-2,0.7-2.7,2.1c-0.7,1.4-1,2.6-1,3.7v6h54.3c2.4,0,5,0.5,7.7,1.4c2.7,1,5.3,2.3,7.6,4s4.2,3.7,5.7,6
				c1.5,2.3,2.2,4.8,2.2,7.5v22.1C350.2,908.3,349.5,911.4,348.2,914.7z"/>
			<path class="st0" d="M465.2,932.5H361.1V823.8H465c4.4,0,8.3,1.1,11.7,3.2c3.3,2.1,6.2,4.8,8.5,8c2.3,3.3,4.1,6.8,5.3,10.6
				c1.2,3.9,1.8,7.5,1.8,11c0,3.6-0.6,7.4-1.7,11.3c-1.1,3.9-3,7-5.6,9.2c3,2.7,4.9,6.1,5.9,10.1c1,4,1.5,8.1,1.5,12.2
				c0,3.6-0.4,7.4-1.4,11.2c-0.9,3.9-2.5,7.4-4.6,10.6c-2.1,3.3-5,5.8-8.4,7.9C474.6,931.4,470.3,932.5,465.2,932.5z M411.7,864.7
				h24.6c2.6,0,4.4-0.4,5.2-1.3c0.9-0.8,1.3-2.4,1.3-4.6c0-1.8-0.5-3.4-1.4-4.6c-1-1.3-2.6-1.9-4.9-1.9h-24.7L411.7,864.7
				L411.7,864.7z M436.4,891.6h-24.7V904h24.9c2.3,0,3.9-0.6,4.9-1.9c0.9-1.3,1.4-2.9,1.4-4.6c0-2.1-0.4-3.5-1.3-4.4
				C440.7,892.1,439,891.6,436.4,891.6z"/>
			<path class="st0" d="M554.5,861.1c0,1.9,0.2,3.4,0.2,3.4h65.1v27.7H554v40.3h-50.6v-80.9c0-3.4,0.7-6.6,2-9.9
				c1.3-3.3,3.1-6.2,5.4-8.9c2.2-2.6,4.9-4.8,7.8-6.4c3-1.6,6.1-2.4,9.6-2.4h91.7v28.4h-60.8l0,0
				C555.2,852.6,554.5,857.6,554.5,861.1z"/>
		</g>
	</g>
</g>
</svg>
